<svg xmlns="http://www.w3.org/2000/svg" xml:space="preserve" viewBox="0 0 944 944">
  <g class="layer">
    <path d="M492.17 532.15c1.57-1.48 3.3-2.33 4.28-4.9-5-4.61-10.19-9.44-15.41-14.23-1.66-1.52-3.04-.59-4.32.68-14.92 14.77-31.41 27.92-45.52 43.48-20.13 22.17-20.6 56.81 2.07 78.43 17.6 16.79 35.74 33 53.73 49.37 7.32 6.67 16.07 9.84 26.03 9.73 9.67-.1 19.33-.03 29-.04 15.27-.01 24.7 8.11 25.67 22.11.79 11.55-7.9 21.13-21.92 22.67-10.74 1.19-21.66.92-32.39-.72-8.95-1.37-15.77-6.88-22.16-12.83-12.31-11.48-24.65-22.92-36.74-34.63-10.15-9.82-21.62-15.6-36.15-15.25-16.76.41-28.32-8.86-32.64-25.14-1.46-5.49-2.44-11.07-2.23-16.78.83-22.78-6.59-43.1-18.11-62.37-8.42-14.09-19.16-26.42-28.88-39.52-28.28-38.09-43.68-80.31-40.82-128.09 3.2-53.36 25.5-97.73 65.81-132.72 29.32-25.44 63.95-38.41 102.56-40.85 44.13-2.79 84.08 9.81 118.49 36.76 43.11 33.77 67.18 78.9 71.7 133.74 4.09 49.56-12.08 93.04-41.36 132.29-9.95 13.33-21.38 25.59-29.46 40.29-6.19 11.25-11.76 22.76-14.5 35.44-1.37 6.36-2.04 12.79-1.9 19.29a87.8 87.8 0 0 1-1.55 18.37c-4.24 22.18-18.83 32.62-41.28 29.98-9.74-1.15-17.8-5.25-24.81-11.76-15.13-14.07-30.41-27.98-45.22-42.38-17.31-16.84-17.12-38.15.25-54.97 12.33-11.94 25-23.51 37.78-35.47m-4-159.15c-13.19-11.73-26.41-23.44-39.58-35.2-5.87-5.24-12.09-9.92-19.37-13.08-4.63-2-9.02-2.18-13.98-.52-8.43 2.83-14.97 8.53-22.21 13.19-1.3.84-2.38 2.21-1.75 3.8.83 2.1 2.81 1.36 4.37 1.07 12.39-2.26 23.41 1.02 33.41 8.25 3.78 2.73 7.42 5.67 10.93 8.73 33.8 29.4 67.56 58.86 101.34 88.29 6.02 5.25 12.61 9.9 17.62 16.21 7.55 9.54 8.47 20.84 2.63 29.66-5.8 8.76-18.36 13.19-29.15 10.72-10.69-2.44-18.85-8.96-26.73-15.92-20.47-18.09-40.72-36.43-61.27-54.43-19.17-16.8-38.64-33.24-57-50.93-9.54-9.19-14.13-20.56-12.34-33.88 2.78-20.75 21.37-37.45 42.39-38.43 7.16-.34 8.61-3.19 4.64-9.3-.71-1.1-1.58-2.24-2.64-2.97-12.28-8.36-20.57-11.16-33.2-3.97-2.75 1.57-5.58 3.07-8.08 4.97-20.38 15.5-30.35 35.73-27.42 61.58 1.91 16.76 11.39 29.03 23.65 39.78 41.96 36.77 83.86 73.62 125.07 111.24 15.08 13.77 32.04 19.77 52.61 16.87 19.59-2.76 40.28-21.05 38.11-48.34-1.18-14.79-8.58-26.09-19.28-35.47-27.31-23.93-54.81-47.64-82.77-71.91m63.21-6.23c6.15 5.62 11.82 11.89 18.54 16.71 14.97 10.75 15.66 33.12 6.92 44.7-1.72 2.28-1.43 3.68.54 5.44 4.09 3.68 7.9 7.65 11.12 12.14 2.3 3.2 4.14 2.84 6.6-.02 20.14-23.44 18.01-71.53-21.19-86.02-3.9-1.45-6.24-3.58-8.06-7.31-12.67-25.92-36.3-38.54-64.67-34.11-13.49 2.1-23.94 9.84-32.86 20.17 4.1 5.2 8.85 8.88 13.16 12.99 2.6 2.48 4.49 2.55 7.55.09 15.45-12.42 33.38-11.66 48.06 1.7 4.68 4.26 9.2 8.69 14.29 13.54M446.8 484.91c.36-1.09-.18-1.98-.77-2.77-3.98-5.22-9.37-8.93-14.34-13.08-1.95-1.63-3.67-.3-5.31 1.03-2.98 2.4-5.83 5.05-9.1 6.98-9.7 5.72-19.86 5.85-29.44.15-9.04-5.38-13.15-13.86-12.22-24.52.62-7.19 3.03-13.6 8.19-18.84 1.49-1.52 3.48-3.17.99-5.4-4.93-4.41-9.92-8.74-15.03-13.23-7 6.62-12.68 13.57-15.56 22.28-6.56 19.9-3.8 38.15 10.59 53.95 13.83 15.18 31.7 17.1 50.57 14.38 13.35-1.93 22.43-11.02 31.43-20.94m-37.39-108.01c-1.11 2.53-7.31 3.39-3.03 7.61 6.5 6.43 13.43 12.43 20.18 18.62 1.21 1.11 2.57 1.83 3.94.44 6.37-6.47 12.68-13.01 17.53-18-7.1-7.99-13.62-15.33-20.13-22.68-1.87-2.11-3.44-1.24-5.02.36a6413.71 6412.18 0 0 1-13.47 13.66m89.7 49.14c-2.56-2.37-5.13-4.73-7.68-7.11-8.83-8.2-6.91-6.56-14.24.35-4.89 4.62-9.51 9.53-14.46 14.53l23.02 21.25 21.3-21.5c-2.39-2.26-4.91-4.64-7.94-7.52m52.06-43.05-22.64-21.74c-4.4 4.82-8.51 9.35-12.65 13.86-1.72 1.88-1.99 3.79-.19 5.73 8.38 8.98 18 16.57 27.89 25.52 2.96-3.35 5.46-6.45 8.25-9.27 6.83-6.92 6.88-6.87-.66-14.1m-33.19 207.48c-4.29 4.19-9.78 6.07-16.6 8.26 15.18 3.28 22.78 12.72 26.25 26.55 3.75-14.67 11.52-24.76 28.62-26.39-14.51-3.84-17.97-7.1-28.51-25.93-2.73 6.04-4.34 12.46-9.76 17.52m4.95-119.04c-9.68 9.79-10.73 6.11 1.17 16.73.86.76 1.9 1.37 2.94 1.89 6.87 3.48 13.77 3.65 20.53-.2 5.96-3.41 7.37-10.33 3.25-15.74-3.56-4.67-8.15-8.31-12.59-12.1-1.88-1.6-3.38-1.52-5.17.21-3.11 3-6.4 5.83-10.13 9.21m-81.97-173.83c3.07-7.3 9.13-11.25 17.26-13.96-6.01-2.08-10.14-4.63-13.43-8.65-3.18-3.9-4.51-8.7-7.32-14.31-2.91 11.79-9.09 19.49-20.34 23.22 10.9 3.15 16.87 10.43 20.04 20.67 2.42-2.46 2.65-4.54 3.79-6.98m26.34-14.02c8.53 2.68 12.26 9.82 15.53 17.64 3.3-9.51 8.77-16.06 19.74-18.63-10.85-3.33-15.98-10.43-19.66-19.33-4.05 8.24-8.6 15.22-16.88 18.9-1.03.46.38.84 1.27 1.42m116.89 45.24-6.99 3.71c8.24 1.88 12.45 7.05 15.95 13.6 2.62-6.95 7.66-10.95 15.14-14.21-8.78-3.13-12.95-8.62-15.37-16.32-2.02 5.21-3.97 9.75-8.73 13.22m-246.73 78.12c2.07-2.49 4.84-3.99 8.97-5.15-7.56-2.33-10.62-7.49-13.45-13.95-1.81 6.92-6.51 10.35-11.65 14.06 5.71 2.2 9.5 5.82 12.05 11.31 1.53-2.38 2.59-4.04 4.08-6.27m142.83 195.85c1.96-2.25 4.67-3.47 7.54-5.1-5.12-3.06-8.73-7.04-11.57-13.54-2.69 6.91-6.42 11.24-13.28 13.8 7.71 1.83 11.23 6.15 13.28 12.28.94-2.68 1.96-4.94 4.03-7.44m44.95-324.39c2.14-3.34 4.87-6.01 9.84-7.25-5.37-2.12-8.38-5.39-11.69-9.24-2.77 3.85-5.97 6.75-10.12 9.34 3.98 2.29 6.9 4.66 8.81 8.09 1.24 2.24 1.97.46 3.16-.94m26 19.88-2.37 1.47c4.6 2.2 7.61 5.35 9.82 9.86 2.31-4.61 5.41-7.88 10.55-9.85-5.52-2.28-8.4-6.04-10.62-10.81-2.07 3.63-3.34 7.2-7.38 9.33m68.76 60.2c1.22-2.62.81-4.95-1.57-6.62-1.63-1.13-3.52-1-5.19.08-1.71 1.1-2.25 2.85-2.04 4.79.41 3.92 3.96 4.92 8.8 1.75M507.23 635.47c2.79-.69 4.27-2.64 4.09-5.43-.17-2.64-1.94-4.28-4.57-4.37-2.99-.11-4.46 1.8-4.81 4.62l5.29 5.18z"/>
    <path d="M439 756.87h24.79l.5-1.61c-8.01-5.94-12.65-16.54-25.77-15.29-10.07.96-20.31.26-30.47.11-7.6-.12-14.51-2.28-19.63-8.29-5.66-6.64-7.22-14.01-3.76-22.29 3.94-9.43 11.64-13.19 21.08-14.53 13.41-1.9 23.35 4.56 32.45 13.29 11.42 10.96 23.26 21.49 34.36 32.77 10.96 11.14 23.63 16.77 39.36 15.96 8.8-.46 17.67-.35 26.48.04 17.63.77 27.53 18.07 18.81 32.86-4.36 7.37-11.5 10.37-19.83 10.4-29.66.1-59.32.09-88.98.12-11.99.01-23.96.83-35.95-.04-12.42-.9-22.4-10.22-22.51-21.27-.12-12.21 9.72-21.75 23.08-22.1 8.49-.23 16.99-.1 25.99-.13zm63.64 92.85c-21.85 14.26-50.28 10.11-64.94-9.2-4.84-6.38-6.6-13.65-6.67-21.5-.03-3.08 1.14-4.33 4.39-4.53 15.46-.95 30.93-.29 46.39-.47 10.82-.12 21.63.07 32.44-.12 3.67-.06 4.81 1.15 4.96 4.86.53 13.5-5.93 23.11-16.57 30.96zM265.81 247.16c11.03 8.65 21.97 16.85 32.48 25.56 11.06 9.18 8.87 23.42-4.09 28.24-4.89 1.82-9.73.84-13.71-2.18-15.15-11.44-30.24-22.98-45.07-34.82-6.39-5.1-7.18-15.21-2.52-21.8 4.54-6.42 13.61-8.23 20.95-3.77 4.1 2.5 7.8 5.67 11.96 8.77zm428.86-7.66c6.78-4.49 13.49-5.12 19.88-.45 5.52 4.04 6.76 10 5.74 16.55-.66 4.23-3.12 7.3-6.35 9.8-12.24 9.49-24.49 18.98-36.82 28.36a63.32 63.32 0 0 1-8.84 5.61c-7.23 3.8-14.78 2.05-19.57-4.31-4.51-5.98-4.27-14.02 1.29-19.64 4.2-4.25 9.02-7.89 13.71-11.62 10.17-8.09 20.43-16.06 30.96-24.3zm-14.2 295.02c11.12 8.22 22.11 16.03 32.75 24.29 9.2 7.14 9.49 18.82.92 25.64-5.04 4.01-10.63 5.41-16.69 2.08-1.75-.96-3.59-1.81-5.18-2.99-12.96-9.61-25.93-19.2-38.77-28.97-6.94-5.28-9.29-12.17-6.87-18.69 3.62-9.75 14.7-13.36 24.51-7.79 3.17 1.8 6.03 4.13 9.33 6.43zm-422.66 49.45c-5.73 3.75-11.4 5.26-17.75 2.71-10.31-4.13-13.38-18.32-4.88-25.4 13.93-11.58 28.35-22.62 43.52-32.54 10-6.54 20.51-3.61 24.93 5.89 3.26 7 1.39 14.13-5.51 19.35-13.26 10.02-26.66 19.86-40.3 29.99h-.01zM459.1 151.12c.21-8.13.63-15.75.25-23.43-.4-7.9 6.81-14.64 15.08-14.9 8.45-.27 15.66 5.63 15.79 14.01.29 19.3.27 38.61-.09 57.91-.16 8.82-7.59 15.21-16.16 15.01-8.26-.2-14.81-6.81-14.95-15.67-.18-10.81.04-21.63.08-32.93zm157.46.15c8.06 8.22 8.69 14.9 2.7 24.3-8.05 12.64-16 25.35-24.03 38.01-2.75 4.32-6.23 7.83-11.29 9.39-6.1 1.88-11.26.03-15.35-4.53-4.57-5.1-5.41-11.2-2.44-17.23 5.96-12.11 13.45-23.37 20.32-34.98 2.04-3.44 4.13-6.86 6.39-10.15 6.03-8.76 14.12-10.45 23.7-4.81zm143.86 226.14c-4.86 4.58-10.89 4.7-16.55 5.64-14.42 2.39-28.87 4.56-43.32 6.76-9.67 1.47-16.39-3.4-18.32-13.18-1.6-8.06 3.53-16.25 12.16-17.77 17.49-3.07 35.06-5.71 52.66-8.14 6.46-.89 12.37.98 15.56 7.42 3.29 6.66 3.1 13.11-2.19 19.27zm4.67 94.25c-2.31 12.1-12.24 14.54-20.36 13.33-16.43-2.44-32.83-5.07-49.21-7.79-9.45-1.58-14.97-9.01-13.58-17.79 1.48-9.36 9.09-14.57 18.97-13.09 16.25 2.44 32.51 4.74 48.75 7.24 11.16 1.73 14.84 6.07 15.43 18.1zM193.85 380.5c-7.73-4.77-10.37-11.59-7.77-19.27 2.36-6.98 8.69-11.1 16.88-10.37 14.09 1.25 27.96 4.02 41.88 6.4 3.76.64 7.56 1.17 11.21 2.21 8.69 2.48 13.29 10.36 11.3 18.83-2 8.47-9.02 12.85-18.14 11.43-16.08-2.5-32.18-4.91-48.26-7.42-2.28-.35-4.5-1.09-7.1-1.81zm66.1 67.17c6.16 4.19 9.11 10.81 7.8 16.85-1.39 6.45-6.67 11.64-13.26 12.66-16.93 2.61-33.85 5.28-50.82 7.59-12.6 1.72-21.48-8.76-17.96-20.71 1.89-6.44 6.69-9.28 12.87-10.23 16.92-2.63 33.86-5.14 50.78-7.76 3.59-.55 6.95.03 10.59 1.6zm92.86-296.69c2.7 2.11 4.36 4.6 5.94 7.15 8.29 13.46 16.75 26.81 24.79 40.41 5.95 10.07 1.99 20.46-8.74 24.19-7.2 2.51-13.47.03-18.5-7.87-5.89-9.26-11.45-18.74-17.19-28.09-2.69-4.4-5.54-8.7-8.21-13.11-4.48-7.42-4.06-14.74 1.04-20.21 5.17-5.53 13.08-6.56 20.87-2.47zM492.53 532.1c1.57-1.48 3.3-2.33 4.28-4.9-5-4.61-10.19-9.44-15.41-14.23-1.66-1.52-3.04-.59-4.32.68-14.92 14.77-31.41 27.93-45.52 43.49-20.13 22.18-20.6 56.82 2.07 78.45 17.6 16.79 35.74 33.01 53.73 49.38 7.32 6.67 16.07 9.84 26.03 9.73 9.67-.1 19.33-.03 29-.04 15.27-.01 24.7 8.11 25.67 22.12.79 11.55-7.9 21.14-21.92 22.68-10.74 1.19-21.66.92-32.39-.72-8.95-1.37-15.77-6.88-22.16-12.83-12.31-11.48-24.65-22.93-36.74-34.64-10.15-9.82-21.62-15.6-36.15-15.25-16.76.41-28.32-8.86-32.64-25.15-1.46-5.49-2.44-11.07-2.23-16.78.83-22.79-6.59-43.11-18.11-62.38-8.42-14.09-19.16-26.43-28.88-39.53-28.28-38.1-43.68-80.33-40.82-128.12 3.2-53.37 25.5-97.75 65.81-132.75 29.32-25.45 63.95-38.42 102.56-40.86 44.13-2.79 84.08 9.81 118.49 36.77 43.11 33.78 67.18 78.92 71.7 133.77 4.09 49.57-12.08 93.06-41.36 132.32-9.95 13.33-21.38 25.6-29.46 40.3-6.19 11.25-11.76 22.77-14.5 35.45-1.37 6.36-2.04 12.79-1.9 19.29a87.8 87.8 0 0 1-1.55 18.37c-4.24 22.19-18.83 32.63-41.28 29.99-9.74-1.15-17.8-5.25-24.81-11.76-15.13-14.07-30.41-27.99-45.22-42.39-17.31-16.84-17.12-38.16.25-54.98 12.33-11.94 25-23.52 37.78-35.48m-4-159.19c-13.19-11.73-26.41-23.45-39.58-35.21-5.87-5.24-12.09-9.92-19.37-13.08-4.63-2-9.02-2.18-13.98-.52-8.43 2.83-14.97 8.53-22.21 13.19-1.3.84-2.38 2.21-1.75 3.8.83 2.1 2.81 1.36 4.37 1.07 12.39-2.26 23.41 1.02 33.41 8.25 3.78 2.73 7.42 5.67 10.93 8.73 33.8 29.41 67.56 58.87 101.34 88.31 6.02 5.25 12.61 9.9 17.62 16.21 7.55 9.54 8.47 20.84 2.63 29.67-5.8 8.76-18.36 13.19-29.15 10.72-10.69-2.44-18.85-8.96-26.73-15.92-20.47-18.09-40.72-36.44-61.27-54.44-19.17-16.8-38.64-33.25-57-50.94-9.54-9.19-14.13-20.56-12.34-33.89 2.78-20.75 21.37-37.46 42.39-38.44 7.16-.34 8.61-3.19 4.64-9.3-.71-1.1-1.58-2.24-2.64-2.97-12.28-8.36-20.57-11.16-33.2-3.97-2.75 1.57-5.58 3.07-8.08 4.97-20.38 15.5-30.35 35.74-27.42 61.59 1.91 16.76 11.39 29.04 23.65 39.79 41.96 36.78 83.86 73.64 125.07 111.27 15.08 13.77 32.04 19.77 52.61 16.87 19.59-2.76 40.28-21.06 38.11-48.35-1.18-14.79-8.58-26.1-19.28-35.48-27.31-23.94-54.81-47.65-82.77-71.93m63.21-6.23c6.15 5.62 11.82 11.89 18.54 16.71 14.97 10.75 15.66 33.13 6.92 44.71-1.72 2.28-1.43 3.68.54 5.44 4.09 3.68 7.9 7.65 11.12 12.14 2.3 3.2 4.14 2.84 6.6-.02 20.14-23.45 18.01-71.55-21.19-86.04-3.9-1.45-6.24-3.58-8.06-7.31-12.67-25.93-36.3-38.55-64.67-34.12-13.49 2.1-23.94 9.84-32.86 20.17 4.1 5.2 8.85 8.88 13.16 12.99 2.6 2.48 4.49 2.55 7.55.09 15.45-12.42 33.38-11.66 48.06 1.7 4.68 4.26 9.2 8.69 14.29 13.54M447.16 484.84c.36-1.09-.18-1.98-.77-2.77-3.98-5.22-9.37-8.93-14.34-13.08-1.95-1.63-3.67-.3-5.31 1.03-2.98 2.4-5.83 5.05-9.1 6.98-9.7 5.72-19.86 5.85-29.44.15-9.04-5.38-13.15-13.86-12.22-24.53.62-7.19 3.03-13.6 8.19-18.84 1.49-1.52 3.48-3.17.99-5.4-4.93-4.41-9.92-8.74-15.03-13.23-7 6.62-12.68 13.57-15.56 22.29-6.56 19.9-3.8 38.16 10.59 53.96 13.83 15.18 31.7 17.1 50.57 14.38 13.35-1.93 22.43-11.02 31.43-20.94M409.77 376.8c-1.11 2.53-7.31 3.39-3.03 7.61 6.5 6.43 13.43 12.43 20.18 18.62 1.21 1.11 2.57 1.83 3.94.44 6.37-6.47 12.68-13.01 17.53-18-7.1-7.99-13.62-15.33-20.13-22.69-1.87-2.11-3.44-1.24-5.02.36a6413.71 6413.71 0 0 1-13.47 13.66m89.7 49.15c-2.56-2.37-5.13-4.73-7.68-7.11-8.83-8.2-6.91-6.56-14.24.35-4.89 4.62-9.51 9.53-14.46 14.53l23.02 21.26 21.3-21.51c-2.39-2.26-4.91-4.64-7.94-7.52m52.06-43.06-22.64-21.75c-4.4 4.82-8.51 9.35-12.65 13.86-1.72 1.88-1.99 3.79-.19 5.73 8.38 8.98 18 16.57 27.89 25.53 2.96-3.35 5.46-6.45 8.25-9.27 6.83-6.92 6.88-6.87-.66-14.1m-33.19 207.53c-4.29 4.19-9.78 6.07-16.6 8.26 15.18 3.28 22.78 12.72 26.25 26.56 3.75-14.67 11.52-24.77 28.62-26.4-14.51-3.84-17.97-7.1-28.51-25.94-2.73 6.04-4.34 12.46-9.76 17.52m4.95-119.07c-9.68 9.79-10.73 6.11 1.17 16.73.86.76 1.9 1.37 2.94 1.89 6.87 3.48 13.77 3.65 20.53-.2 5.96-3.41 7.37-10.33 3.25-15.74-3.56-4.67-8.15-8.31-12.59-12.1-1.88-1.6-3.38-1.52-5.17.21-3.11 3-6.4 5.83-10.13 9.21m-81.97-173.87c3.07-7.3 9.13-11.25 17.26-13.96-6.01-2.08-10.14-4.63-13.43-8.65-3.18-3.9-4.51-8.7-7.32-14.31-2.91 11.79-9.09 19.49-20.34 23.23 10.9 3.15 16.87 10.43 20.04 20.67 2.42-2.46 2.65-4.54 3.79-6.98m26.34-14.02c8.53 2.68 12.26 9.82 15.53 17.64 3.3-9.51 8.77-16.06 19.74-18.63-10.85-3.33-15.98-10.43-19.66-19.33-4.05 8.24-8.6 15.22-16.88 18.9-1.03.46.38.84 1.27 1.42m116.89 45.25-6.99 3.71c8.24 1.88 12.45 7.05 15.95 13.6 2.62-6.95 7.66-10.95 15.14-14.21-8.78-3.13-12.95-8.62-15.37-16.32-2.02 5.21-3.97 9.75-8.73 13.22m-246.73 78.14c2.07-2.49 4.84-3.99 8.97-5.15-7.56-2.33-10.62-7.49-13.45-13.95-1.81 6.92-6.51 10.35-11.65 14.06 5.71 2.2 9.5 5.82 12.05 11.31 1.53-2.38 2.59-4.04 4.08-6.27m142.83 195.9c1.96-2.25 4.67-3.47 7.54-5.1-5.12-3.06-8.73-7.04-11.57-13.54-2.69 6.91-6.42 11.24-13.28 13.8 7.71 1.83 11.23 6.15 13.28 12.28.94-2.68 1.96-4.94 4.03-7.44m44.95-324.47c2.14-3.34 4.87-6.01 9.84-7.25-5.37-2.12-8.38-5.39-11.69-9.24-2.77 3.85-5.97 6.75-10.12 9.34 3.98 2.29 6.9 4.66 8.81 8.09 1.24 2.24 1.97.46 3.16-.94m26 19.88-2.37 1.47c4.6 2.2 7.61 5.35 9.82 9.86 2.31-4.61 5.41-7.88 10.55-9.85-5.52-2.28-8.4-6.04-10.62-10.81-2.07 3.63-3.34 7.2-7.38 9.33m68.76 60.21c1.22-2.62.81-4.95-1.57-6.62-1.63-1.13-3.52-1-5.19.08-1.71 1.1-2.25 2.85-2.04 4.79.41 3.92 3.96 4.92 8.8 1.75m-116.5 276.14c1.1.9 2.39 1.25 3.73.92 2.79-.69 4.27-2.64 4.09-5.43-.17-2.64-1.94-4.28-4.57-4.37-2.99-.11-4.46 1.8-4.81 4.62-.17 1.35.1 2.64 1.56 4.26z"/>
  </g>
</svg>
